<?xml version="1.0" encoding="UTF-8"?>
<svg width="14px" height="13px" viewBox="0 0 14 13" version="1.1" xmlns="http://www.w3.org/2000/svg" xmlns:xlink="http://www.w3.org/1999/xlink">
    <!-- Generator: Sketch 52.4 (67378) - http://www.bohemiancoding.com/sketch -->
    <title>Group 13</title>
    <desc>Created with Sketch.</desc>
    <g id="Page-1" stroke="none" stroke-width="1" fill="none" fill-rule="evenodd">
        <g id="magenta-footer-icons" transform="translate(-502.000000, -50.000000)">
            <g id="Footer" transform="translate(35.000000, 48.000000)">
                <g id="Group-8">
                    <g>
                        <g id="Group-13" transform="translate(466.000000, 0.000000)">
                            <g id="hotspot">
                                <polygon id="Shape" points="0 0 16 0 16 16 0 16"></polygon>
                                <path fill="white" d="M8,7.33333333 C7.26666667,7.33333333 6.66666667,7.93333333 6.66666667,8.66666667 C6.66666667,9.4 7.26666667,10 8,10 C8.73333333,10 9.33333333,9.4 9.33333333,8.66666667 C9.33333333,7.93333333 8.73333333,7.33333333 8,7.33333333 Z M12,8.66666667 C12,6.46 10.2066667,4.66666667 8,4.66666667 C5.79333333,4.66666667 4,6.46 4,8.66666667 C4,10.1466667 4.80666667,11.4333333 6,12.1266667 L6.66666667,10.9666667 C5.87333333,10.5 5.33333333,9.65333333 5.33333333,8.66666667 C5.33333333,7.19333333 6.52666667,6 8,6 C9.47333333,6 10.6666667,7.19333333 10.6666667,8.66666667 C10.6666667,9.65333333 10.1266667,10.5 9.33333333,10.9666667 L10,12.1266667 C11.1933333,11.4333333 12,10.1466667 12,8.66666667 Z M8,2 C4.32,2 1.33333333,4.98666667 1.33333333,8.66666667 C1.33333333,11.1333333 2.67333333,13.28 4.66,14.4333333 L5.32666667,13.28 C3.74,12.3533333 2.66666667,10.64 2.66666667,8.66666667 C2.66666667,5.72 5.05333333,3.33333333 8,3.33333333 C10.9466667,3.33333333 13.3333333,5.72 13.3333333,8.66666667 C13.3333333,10.64 12.26,12.3533333 10.6666667,13.28 L11.3333333,14.4333333 C13.3266667,13.28 14.6666667,11.1333333 14.6666667,8.66666667 C14.6666667,4.98666667 11.68,2 8,2 Z" id="Shape" fill-rule="nonzero"></path>
                            </g>
                        </g>
                    </g>
                </g>
            </g>
        </g>
    </g>
</svg>