<svg xmlns="http://www.w3.org/2000/svg" width="14" height="14" viewBox="0 0 14 14">
    <g fill="none" fill-rule="evenodd">
        <path d="M-1-1h16v16H-1z"/>
        <path fill="#FFF" d="M9.067 6.467l-.6.6c-.533.533-.8.933-.8 1.933H6.333v-.333c0-.734.267-1.4.801-1.867l.8-.867c.266-.266.4-.6.4-.933 0-.733-.6-1.333-1.334-1.333-.733 0-1.333.6-1.333 1.333H4.333c0-1.467 1.2-2.667 2.667-2.667 1.467 0 2.667 1.2 2.667 2.667 0 .6-.267 1.133-.6 1.467zm-2.734 5.2h1.334v-1.334H6.333v1.334zM7 .333C3.333.333.333 3.333.333 7s3 6.667 6.667 6.667 6.667-3 6.667-6.667S10.667.333 7 .333z"/>
    </g>
</svg>
