<svg width="40" height="40" viewBox="0 0 40 40" fill="none" xmlns="http://www.w3.org/2000/svg">
<rect width="40" height="40" rx="8" fill="#E20074"/>
<path d="M13.1108 28.165H13.8482V31.129H15.1528V31.8114H13.1108V28.165Z" fill="white"/>
<path d="M17.4287 28.165H18.166V31.8114H17.4287V28.165Z" fill="white"/>
<path d="M22.5816 28.8474H21.2276V29.6721H22.5322V30.3545H21.2276V31.8122H20.4902V28.1658H22.5809V28.8482L22.5816 28.8474Z" fill="white"/>
<path d="M26.8887 28.8474H25.4805V29.6172H26.8346V30.2997H25.4805V31.1297H26.8887V31.8122H24.7432V28.1658H26.8887V28.8482V28.8474Z" fill="white"/>
<g clip-path="url(#clip0_8201_38356)">
<path d="M16.413 16.8113H13.1387V20.0873H16.413V16.8113Z" fill="white"/>
<path d="M13.1387 9.27441V14.8465H14.1205V14.6831C14.1205 12.0604 15.5944 10.4224 18.3789 10.4224H18.5422V22.2199C18.5422 23.8579 17.8869 24.5136 16.2497 24.5136H15.7577V25.6616H24.2745V24.5136H23.7825C22.1453 24.5136 21.49 23.8579 21.49 22.2199V10.4224H21.6533C24.4378 10.4224 25.9117 12.0604 25.9117 14.6831V14.8465H26.8935V9.27441H13.1387Z" fill="white"/>
<path d="M26.8935 16.8113H23.6191V20.0873H26.8935V16.8113Z" fill="white"/>
</g>
<defs>
<clipPath id="clip0_8201_38356">
<rect width="13.7571" height="16.3849" fill="white" transform="translate(13.1387 9.27441)"/>
</clipPath>
</defs>
</svg>
