<?xml version="1.0" encoding="UTF-8"?>
<svg width="13px" height="16px" viewBox="0 0 13 16" version="1.1" xmlns="http://www.w3.org/2000/svg" xmlns:xlink="http://www.w3.org/1999/xlink">
    <!-- Generator: Sketch 52.4 (67378) - http://www.bohemiancoding.com/sketch -->
    <title>Group 15</title>
    <desc>Created with Sketch.</desc>
    <g id="Page-1" stroke="none" stroke-width="1" fill="none" fill-rule="evenodd">
        <g id="magenta-footer-icons" transform="translate(-644.000000, -48.000000)" fill="white">
            <g id="Footer" transform="translate(35.000000, 48.000000)">
                <g id="Group-8">
                    <g>
                        <g id="Group-15" transform="translate(609.000000, 0.000000)">
                            <g id="Group-5">
                                <path d="M7.70485469,0.972596005 C10.2238499,1.0181118 11.7261079,2.74050173 11.947558,5.89010486 L12.7652539,5.75400811 L12.6092721,0.224514563 L0.413696938,0.224514563 L0.259912123,5.75400811 L1.07672918,5.89010486 C1.29817931,2.74050173 2.778468,1.0181118 5.31943252,0.972596005 L5.31943252,12.5516349 C5.31943252,14.6588812 4.96572745,14.9995737 2.75649874,15.0221063 L2.75649874,15.9053832 L10.2677885,15.9053832 L10.2677885,15.0221063 C8.05899915,14.9995737 7.70485469,14.6588812 7.70485469,12.5516349 L7.70485469,0.972596005 Z" id="Fill-2"></path>
                                <polygon id="Fill-5" points="9.62 10.639253 12.7119535 10.639253 12.7119535 7.46666667 9.62 7.46666667"></polygon>
                                <polygon id="Fill-16" points="0 10.6383517 3.09239293 10.6383517 3.09239293 7.46666667 0 7.46666667"></polygon>
                            </g>
                        </g>
                    </g>
                </g>
            </g>
        </g>
    </g>
</svg>